<svg width="216" height="90" xmlns="http://www.w3.org/2000/svg" xmlns:xlink="http://www.w3.org/1999/xlink" overflow="hidden"><defs><clipPath id="clip0"><rect x="644" y="58" width="216" height="90"/></clipPath><clipPath id="clip1"><rect x="644" y="59" width="216" height="88"/></clipPath><clipPath id="clip2"><rect x="644" y="59" width="216" height="88"/></clipPath><clipPath id="clip3"><rect x="644" y="59" width="216" height="88"/></clipPath></defs><g clip-path="url(#clip0)" transform="translate(-644 -58)"><g clip-path="url(#clip1)"><g clip-path="url(#clip2)"><g clip-path="url(#clip3)"><path d="M799.699 89.3336C807.006 86.6109 815.051 86.6109 822.357 89.3336 825.93 90.623 829.214 92.6001 832.024 95.1529 834.667 97.5486 836.825 100.426 838.382 103.629L838.623 104.138C841.811 111.219 841.829 119.313 838.674 126.402 837.088 129.828 834.827 132.901 832.026 135.436 829.199 137.979 825.92 139.97 822.359 141.307 813.827 144.573 804.297 143.995 796.223 139.724 791.719 137.397 787.908 133.927 785.172 129.664 780.348 121.982 779.696 112.4 783.434 104.138 785.004 100.744 787.25 97.7051 790.033 95.2046 792.855 92.6566 796.135 90.6646 799.699 89.3336ZM729.637 86.2969C745.98 86.3025 759.257 98.5368 759.528 113.721L759.532 114.182 759.532 141.795 743.271 141.795 743.271 138.973C741.391 139.88 739.426 140.597 737.404 141.113L736.728 141.277 736.445 141.337C736.042 141.427 735.637 141.506 735.23 141.578 735.015 141.616 734.8 141.652 734.583 141.686L734.132 141.753 733.68 141.812C733.423 141.847 733.169 141.88 732.911 141.907L732.463 141.947 732.013 141.981C731.77 141.999 731.527 142.02 731.282 142.033 730.959 142.05 730.635 142.062 730.31 142.068L729.643 142.072 729.266 142.064C728.889 142.059 728.512 142.054 728.135 142.037L727.615 142.002C727.286 141.982 726.953 141.962 726.626 141.932L726.165 141.88C725.826 141.844 725.486 141.807 725.151 141.76L723.731 141.525 723.229 141.424 722.391 141.243C721.012 140.918 719.657 140.497 718.337 139.983 717.602 139.715 716.884 139.411 716.177 139.085L715.783 138.899 715.356 138.691C712.94 137.481 710.701 135.946 708.702 134.129 705.918 131.614 703.665 128.57 702.075 125.174 700.837 122.483 700.083 119.596 699.847 116.645L699.807 116.179 699.768 115.604C699.756 115.442 699.761 115.277 699.756 115.115L699.739 114.627 699.731 114.08C699.704 110.268 700.522 106.497 702.128 103.039 703.686 99.6523 705.924 96.6214 708.703 94.1337 711.51 91.585 714.781 89.5985 718.338 88.2825 720.729 87.4185 723.209 86.8317 725.732 86.533L726.61 86.4381C726.978 86.4032 727.348 86.3807 727.72 86.359 727.861 86.3505 728.002 86.3383 728.144 86.3317 728.549 86.3129 728.958 86.3026 729.37 86.3026L729.637 86.2969ZM664.366 69.2192 664.366 92.4982C666.021 90.8423 668.008 89.555 670.197 88.721 672.477 87.8153 674.908 87.3476 677.362 87.3424 690.359 87.3424 696.919 94.8637 697.044 109.906L697.046 110.365 697.046 141.715 680.68 141.766 680.68 111.494C680.68 108.365 679.965 106.017 678.532 104.448 676.96 102.824 674.757 101.965 672.498 102.096 670.272 101.978 668.104 102.837 666.566 104.448 665.158 105.951 664.426 108.176 664.37 111.122L664.366 111.494 664.366 141.712 648 141.813 648 69.2701 664.366 69.2192ZM778.477 69.2192 778.477 141.609 762.162 141.813 762.162 69.2701 778.477 69.2192ZM817.752 103.881C813.586 101.499 808.467 101.499 804.301 103.881 802.234 105.028 800.492 106.679 799.237 108.68 797.987 110.649 797.33 112.936 797.345 115.267 797.313 118.836 798.8 122.25 801.437 124.66 806.671 129.822 815.043 129.9 820.373 124.895L820.616 124.66C823.255 122.249 824.741 118.835 824.708 115.267 824.723 112.936 824.066 110.65 822.816 108.68 821.561 106.679 819.819 105.028 817.752 103.881ZM732.47 101.302C729.213 100.606 725.813 101.134 722.922 102.785 720.862 103.928 719.125 105.575 717.875 107.57 716.625 109.511 715.97 111.773 715.989 114.081 715.956 117.638 717.438 121.042 720.067 123.445 725.365 128.668 733.887 128.668 739.185 123.445 741.812 121.041 743.293 117.638 743.261 114.081 743.281 111.773 742.625 109.511 741.376 107.57 741.289 107.428 741.195 107.295 741.1 107.158 741.094 110.324 738.731 112.991 735.585 113.385 732.438 113.78 729.488 111.778 728.698 108.713 727.908 105.647 729.524 102.473 732.47 101.302ZM751.341 68.2227C753.279 68.7685 754.4 69.5138 754.563 70.3419 754.889 72.0053 751.534 74.8054 745.133 77.4584L744.768 77.6085C734.826 81.3404 724.332 83.3918 713.715 83.678L712.945 83.6729C706.24 83.5814 702.218 82.2698 701.898 80.6376 701.735 79.8086 702.492 78.6972 704.08 77.4617 707.457 78.6568 716.239 79.2468 728.497 76.85 740.756 74.4532 748.667 70.6007 751.341 68.2227ZM725.2 61.8185 725.535 61.7522C736.652 59.5785 755.883 58.0258 757.445 65.9915 757.687 67.333 757.399 68.7159 756.641 69.8497 755.906 66.5675 750.221 65.1917 742.839 65.1917 731.866 65.2824 721.006 67.4056 710.809 71.4532 703.974 74.2358 699.229 77.648 699.788 80.9613 698.657 80.1974 697.868 79.0259 697.585 77.6931 696.043 69.808 714.052 64.0423 725.2 61.8185Z" fill="#FF6903" fill-rule="evenodd" fill-opacity="1"/><path d="M852.353 137.002 854.783 141.343 857.298 137.002 859.413 137.002 859.413 142.902 857.994 142.902 857.994 138.57 855.547 142.902 854.018 142.902 851.58 138.57 851.58 142.902 850.17 142.902 850.17 137.002 852.353 137.002ZM849.372 137 849.372 138.2 846.891 138.2 846.891 142.9 845.48 142.9 845.48 138.2 843 138.2 843 137 849.372 137Z" fill="#FF6903" fill-rule="evenodd" fill-opacity="1"/></g></g></g></g></svg>